<svg width="120" height="142" viewBox="0 0 120 142" fill="none" xmlns="http://www.w3.org/2000/svg">
<mask id="path-1-outside-1" maskUnits="userSpaceOnUse" x="1.16129" y="1.80646" width="118" height="139" fill="black">
<rect fill="white" x="1.16129" y="1.80646" width="118" height="139"/>
<path d="M43.1773 33.9122C49.6656 39.0276 54.9772 39.6793 57.988 39.4642C62.2149 39.7053 69.5446 38.7214 78.4915 31.7814C92.796 20.6904 91.2971 9.33877 90.975 7.49462C90.6529 5.65047 76.6508 2.95918 62.3529 14.0501C55.1875 19.6021 53.1168 25.7862 52.8276 30.5693C52.4726 27.9367 52.4923 24.294 54.0568 20.3581C44.0845 12.9554 34.5131 14.8843 34.283 16.2071C34.0463 17.556 32.942 25.8449 43.1773 33.9122Z"/>
<path d="M39.9759 75.2525C38.9438 73.7081 38.0826 72.0334 37.4253 70.2609C34.947 74.5748 30.3519 77.4746 25.0929 77.4746C18.7295 77.4746 13.339 73.2324 11.4918 67.3611C14.7655 71.3166 19.663 73.8319 25.1389 73.8319C29.7208 73.8319 33.8952 72.0725 37.0571 69.1792C36.3274 66.8658 35.9264 64.4026 35.9264 61.8482C35.9264 56.8827 37.4187 52.269 39.9759 48.4439C36.3274 44.2603 31.0027 41.6277 25.0666 41.6277C14.0753 41.6277 5.16129 50.6855 5.16129 61.8482C5.16129 73.0173 14.0753 82.0687 25.0732 82.0687C31.0027 82.0687 36.334 79.436 39.9759 75.2525Z"/>
<path fill-rule="evenodd" clip-rule="evenodd" d="M39.5486 61.8482C39.5486 50.679 48.4626 41.6277 59.4605 41.6277C70.4584 41.6277 79.3724 50.6855 79.3724 61.8482C79.3724 73.0173 70.4584 82.0687 59.4605 82.0687C48.4626 82.0687 39.5486 73.0173 39.5486 61.8482ZM45.8857 67.3611C47.7329 73.2324 53.1234 77.4746 59.4868 77.4746C65.791 77.4746 71.142 73.3106 73.0353 67.537C69.7615 71.3948 64.9298 73.8319 59.5328 73.8319C54.0569 73.8319 49.1594 71.3166 45.8857 67.3611Z"/>
<path fill-rule="evenodd" clip-rule="evenodd" d="M76.7626 78.5042C75.014 80.3353 72.9761 81.8797 70.7279 83.0657C68.5651 84.2712 66.1854 85.1314 63.6743 85.5941C62.1491 88.1094 61.2683 91.0744 61.2683 94.2479C61.2683 103.384 68.5586 110.793 77.558 110.793C86.5575 110.793 93.8478 103.384 93.8478 94.2479C93.8478 91.1917 93.0326 88.3244 91.6061 85.8678C85.7818 85.3139 80.5688 82.59 76.7626 78.5042ZM77.5843 107.118C72.4962 107.118 68.1773 103.645 66.7048 98.8485C69.3277 102.087 73.2456 104.14 77.6238 104.14C81.9361 104.14 85.8081 102.146 88.4244 98.9853C86.9059 103.716 82.6264 107.118 77.5843 107.118Z"/>
<path d="M79.3724 48.4439C83.0208 44.2603 88.3455 41.6277 94.2816 41.6277C105.273 41.6277 114.187 50.6855 114.194 61.8417C114.194 73.0108 105.28 82.0621 94.2816 82.0621C88.3455 82.0621 83.0208 79.4295 79.3724 75.246C80.4176 73.682 81.2853 71.9877 81.9427 70.1957C84.4144 74.5422 89.0292 77.4681 94.3079 77.4681C100.612 77.4681 105.957 73.3041 107.856 67.5305C104.583 71.3882 99.751 73.8254 94.354 73.8254C89.7195 73.8254 85.4991 72.0268 82.324 69.0749C83.0405 66.7941 83.4218 64.37 83.4218 61.8482C83.4218 56.8827 81.9296 52.269 79.3724 48.4439Z"/>
<path fill-rule="evenodd" clip-rule="evenodd" d="M57.6527 94.2479C57.6527 91.0744 56.7718 88.1094 55.2467 85.5941C50.1652 84.6622 45.649 82.0687 42.2635 78.3934C38.4442 82.5379 33.1918 85.3073 27.3083 85.8678C25.8818 88.3245 25.0666 91.1917 25.0666 94.2479C25.0666 103.384 32.3569 110.793 41.3564 110.793C50.3558 110.793 57.6527 103.39 57.6527 94.2479ZM41.3827 107.118C36.2946 107.118 31.9756 103.645 30.5031 98.8485C33.126 102.087 37.044 104.14 41.4221 104.14C45.7345 104.14 49.6064 102.146 52.2228 98.9853C50.7042 103.716 46.4247 107.118 41.3827 107.118Z"/>
<path fill-rule="evenodd" clip-rule="evenodd" d="M43.8544 114.833C50.8029 113.954 56.6403 109.431 59.4605 103.208C62.2806 109.438 68.1181 113.96 75.0666 114.833C75.5136 116.339 75.7502 117.935 75.7502 119.584C75.7502 128.72 68.46 136.129 59.4605 136.129C50.461 136.129 43.1707 128.72 43.1707 119.584C43.1707 117.935 43.414 116.339 43.8544 114.833ZM48.3508 124.041C49.8234 128.837 54.1423 132.31 59.2304 132.31C64.2725 132.31 68.552 128.902 70.0705 124.178C67.4542 127.338 63.5822 129.332 59.2698 129.332C54.8917 129.332 50.9738 127.28 48.3508 124.041Z"/>
</mask>
<path d="M43.1773 33.9122C49.6656 39.0276 54.9772 39.6793 57.988 39.4642C62.2149 39.7053 69.5446 38.7214 78.4915 31.7814C92.796 20.6904 91.2971 9.33877 90.975 7.49462C90.6529 5.65047 76.6508 2.95918 62.3529 14.0501C55.1875 19.6021 53.1168 25.7862 52.8276 30.5693C52.4726 27.9367 52.4923 24.294 54.0568 20.3581C44.0845 12.9554 34.5131 14.8843 34.283 16.2071C34.0463 17.556 32.942 25.8449 43.1773 33.9122Z" stroke="#9428B7" stroke-width="8" stroke-linejoin="round" mask="url(#path-1-outside-1)"/>
<path d="M39.9759 75.2525C38.9438 73.7081 38.0826 72.0334 37.4253 70.2609C34.947 74.5748 30.3519 77.4746 25.0929 77.4746C18.7295 77.4746 13.339 73.2324 11.4918 67.3611C14.7655 71.3166 19.663 73.8319 25.1389 73.8319C29.7208 73.8319 33.8952 72.0725 37.0571 69.1792C36.3274 66.8658 35.9264 64.4026 35.9264 61.8482C35.9264 56.8827 37.4187 52.269 39.9759 48.4439C36.3274 44.2603 31.0027 41.6277 25.0666 41.6277C14.0753 41.6277 5.16129 50.6855 5.16129 61.8482C5.16129 73.0173 14.0753 82.0687 25.0732 82.0687C31.0027 82.0687 36.334 79.436 39.9759 75.2525Z" stroke="#9428B7" stroke-width="8" stroke-linejoin="round" mask="url(#path-1-outside-1)"/>
<path fill-rule="evenodd" clip-rule="evenodd" d="M39.5486 61.8482C39.5486 50.679 48.4626 41.6277 59.4605 41.6277C70.4584 41.6277 79.3724 50.6855 79.3724 61.8482C79.3724 73.0173 70.4584 82.0687 59.4605 82.0687C48.4626 82.0687 39.5486 73.0173 39.5486 61.8482ZM45.8857 67.3611C47.7329 73.2324 53.1234 77.4746 59.4868 77.4746C65.791 77.4746 71.142 73.3106 73.0353 67.537C69.7615 71.3948 64.9298 73.8319 59.5328 73.8319C54.0569 73.8319 49.1594 71.3166 45.8857 67.3611Z" stroke="#9428B7" stroke-width="8" stroke-linejoin="round" mask="url(#path-1-outside-1)"/>
<path fill-rule="evenodd" clip-rule="evenodd" d="M76.7626 78.5042C75.014 80.3353 72.9761 81.8797 70.7279 83.0657C68.5651 84.2712 66.1854 85.1314 63.6743 85.5941C62.1491 88.1094 61.2683 91.0744 61.2683 94.2479C61.2683 103.384 68.5586 110.793 77.558 110.793C86.5575 110.793 93.8478 103.384 93.8478 94.2479C93.8478 91.1917 93.0326 88.3244 91.6061 85.8678C85.7818 85.3139 80.5688 82.59 76.7626 78.5042ZM77.5843 107.118C72.4962 107.118 68.1773 103.645 66.7048 98.8485C69.3277 102.087 73.2456 104.14 77.6238 104.14C81.9361 104.14 85.8081 102.146 88.4244 98.9853C86.9059 103.716 82.6264 107.118 77.5843 107.118Z" stroke="#9428B7" stroke-width="8" stroke-linejoin="round" mask="url(#path-1-outside-1)"/>
<path d="M79.3724 48.4439C83.0208 44.2603 88.3455 41.6277 94.2816 41.6277C105.273 41.6277 114.187 50.6855 114.194 61.8417C114.194 73.0108 105.28 82.0621 94.2816 82.0621C88.3455 82.0621 83.0208 79.4295 79.3724 75.246C80.4176 73.682 81.2853 71.9877 81.9427 70.1957C84.4144 74.5422 89.0292 77.4681 94.3079 77.4681C100.612 77.4681 105.957 73.3041 107.856 67.5305C104.583 71.3882 99.751 73.8254 94.354 73.8254C89.7195 73.8254 85.4991 72.0268 82.324 69.0749C83.0405 66.7941 83.4218 64.37 83.4218 61.8482C83.4218 56.8827 81.9296 52.269 79.3724 48.4439Z" stroke="#9428B7" stroke-width="8" stroke-linejoin="round" mask="url(#path-1-outside-1)"/>
<path fill-rule="evenodd" clip-rule="evenodd" d="M57.6527 94.2479C57.6527 91.0744 56.7718 88.1094 55.2467 85.5941C50.1652 84.6622 45.649 82.0687 42.2635 78.3934C38.4442 82.5379 33.1918 85.3073 27.3083 85.8678C25.8818 88.3245 25.0666 91.1917 25.0666 94.2479C25.0666 103.384 32.3569 110.793 41.3564 110.793C50.3558 110.793 57.6527 103.39 57.6527 94.2479ZM41.3827 107.118C36.2946 107.118 31.9756 103.645 30.5031 98.8485C33.126 102.087 37.044 104.14 41.4221 104.14C45.7345 104.14 49.6064 102.146 52.2228 98.9853C50.7042 103.716 46.4247 107.118 41.3827 107.118Z" stroke="#9428B7" stroke-width="8" stroke-linejoin="round" mask="url(#path-1-outside-1)"/>
<path fill-rule="evenodd" clip-rule="evenodd" d="M43.8544 114.833C50.8029 113.954 56.6403 109.431 59.4605 103.208C62.2806 109.438 68.1181 113.96 75.0666 114.833C75.5136 116.339 75.7502 117.935 75.7502 119.584C75.7502 128.72 68.46 136.129 59.4605 136.129C50.461 136.129 43.1707 128.72 43.1707 119.584C43.1707 117.935 43.414 116.339 43.8544 114.833ZM48.3508 124.041C49.8234 128.837 54.1423 132.31 59.2304 132.31C64.2725 132.31 68.552 128.902 70.0705 124.178C67.4542 127.338 63.5822 129.332 59.2698 129.332C54.8917 129.332 50.9738 127.28 48.3508 124.041Z" stroke="#9428B7" stroke-width="8" stroke-linejoin="round" mask="url(#path-1-outside-1)"/>
</svg>
